<?xml version="1.0" encoding="utf-8"?>
<!-- Generator: Adobe Illustrator 15.0.2, SVG Export Plug-In . SVG Version: 6.00 Build 0)  -->
<!DOCTYPE svg PUBLIC "-//W3C//DTD SVG 1.1//EN" "http://www.w3.org/Graphics/SVG/1.1/DTD/svg11.dtd">
<svg version="1.1" id="Layer_1" xmlns="http://www.w3.org/2000/svg" xmlns:xlink="http://www.w3.org/1999/xlink" x="0px" y="0px"
	 width="350px" height="35px" viewBox="0 0 350 35" enable-background="new 0 0 350 35" xml:space="preserve">
<g>
	<g>
		<polyline fill="none" stroke="#FFFFFF" stroke-width="2" stroke-linecap="round" stroke-linejoin="round" points="11.394,17.625 
			145.529,17.625 204.223,17.625 338.36,17.625 		"/>
		<g>
			<path fill="#FFFFFF" d="M13.002,7.512c-2.498,4.219-6.387,7.535-10.523,10.113c4.176,2.539,7.902,5.977,10.523,10.113h2.496
				c-2.619-4.01-5.771-7.492-9.662-10.113c3.892-2.66,7.166-6.184,9.703-10.113H13.002z"/>
			<path fill="#FFFFFF" d="M19.02,7.512c-2.498,4.219-6.387,7.535-10.521,10.113c4.176,2.539,7.9,5.977,10.521,10.113h2.496
				c-2.618-4.01-5.771-7.492-9.66-10.113c3.889-2.66,7.164-6.184,9.701-10.113H19.02z"/>
		</g>
		<g>
			<path fill="#FFFFFF" d="M336.752,7.512c2.498,4.219,6.387,7.535,10.523,10.113c-4.176,2.539-7.902,5.977-10.523,10.113h-2.496
				c2.619-4.01,5.771-7.492,9.662-10.113c-3.892-2.66-7.166-6.184-9.703-10.113H336.752z"/>
			<path fill="#FFFFFF" d="M330.734,7.512c2.498,4.219,6.387,7.535,10.521,10.113c-4.176,2.539-7.9,5.977-10.521,10.113h-2.496
				c2.618-4.01,5.771-7.492,9.66-10.113c-3.889-2.66-7.164-6.184-9.701-10.113H330.734z"/>
		</g>
	</g>
</g>
<g>
	
		<line fill="none" stroke="#FFFFFF" stroke-width="2" stroke-linecap="round" stroke-linejoin="round" stroke-miterlimit="10" x1="174.877" y1="9.25" x2="174.877" y2="26"/>
	
		<line fill="none" stroke="#FFFFFF" stroke-width="2" stroke-linecap="round" stroke-linejoin="round" stroke-miterlimit="10" x1="185.877" y1="9.25" x2="185.877" y2="26"/>
	
		<line fill="none" stroke="#FFFFFF" stroke-width="2" stroke-linecap="round" stroke-linejoin="round" stroke-miterlimit="10" x1="163.877" y1="9.25" x2="163.877" y2="26"/>
</g>
</svg>
